<?xml version="1.0" encoding="UTF-8"?>
<svg width="191px" height="29px" viewBox="0 0 191 29" version="1.1" xmlns="http://www.w3.org/2000/svg" xmlns:xlink="http://www.w3.org/1999/xlink">
    <!-- Generator: sketchtool 49.3 (51167) - http://www.bohemiancoding.com/sketch -->
    <title>BF8A01EF-427A-4F37-B756-C0485453B456</title>
    <desc>Created with sketchtool.</desc>
    <defs>
        <polygon id="path-1" points="0 28.9263151 197 28.9263151 197 -9.35483871e-05 0 -9.35483871e-05"></polygon>
    </defs>
    <g id="Visuals" stroke="none" stroke-width="1" fill="none" fill-rule="evenodd">
        <g id="Homepage" transform="translate(-98.000000, -66.000000)">
            <g id="logo" transform="translate(98.000000, 66.000000)">
                <g id="Page-1">
                    <path d="M11.7493366,13.0432022 C9.61681848,12.3808796 8.14397525,11.7622129 7.33080693,11.1872022 C6.51732343,10.6125032 6.11073927,9.84852473 6.11073927,8.89464301 C6.11073927,7.94169677 6.51070462,7.15744946 7.31032013,6.54190108 C8.10993564,5.92697634 9.23418812,5.61857849 10.6830776,5.61857849 C12.131967,5.61857849 13.2770215,5.99090108 14.1176106,6.73461075 C14.9581997,7.47832043 15.3783366,8.47897634 15.3783366,9.73657849 L20.6068828,9.73657849 L20.6270545,9.63523441 C20.6954488,7.32271828 19.8000182,5.39936344 17.9413927,3.86392258 C16.082137,2.32972903 13.6867574,1.5620086 10.7549389,1.5620086 C7.82312046,1.5620086 5.42049175,2.25177204 3.54799835,3.63067527 C1.67518977,5.01020215 0.73910066,6.77203011 0.73910066,8.91522366 C0.73910066,11.058729 1.51476238,12.7628688 3.06608581,14.0270194 C4.61740924,15.2914817 7.08118317,16.403772 10.4574076,17.3638903 C12.3163482,17.9186323 13.6048102,18.5036215 14.3224785,19.1185462 C15.0398317,19.7340946 15.3988234,20.5523312 15.3988234,21.5729441 C15.3988234,22.5944925 15.0057921,23.3986968 14.2200446,23.9868043 C13.4339818,24.5749118 12.3163482,24.8692774 10.8677739,24.8692774 L10.8264851,24.8692774 C7.12215677,24.8692774 5.27015017,23.3410086 5.27015017,20.2850946 L0.0419191419,20.2850946 L0.00126072607,20.4067075 C-0.0264752475,22.1376645 0.45890429,23.6590731 1.45676898,24.9709333 C2.45431848,26.2827935 3.77335314,27.2662989 5.41355776,27.9223849 C7.05439274,28.5778473 8.86511056,28.9058903 10.8472871,28.9058903 C13.8679868,28.9058903 16.2769191,28.2469978 18.0743993,26.9282774 C19.8718795,25.6098688 20.7707772,23.8483527 20.7707772,21.6440409 C20.7707772,19.4400409 20.0291551,17.6648043 18.5459109,16.3192667 C17.0626667,14.9734172 14.7971419,13.8817075 11.7493366,13.0432022" id="Fill-1" fill="#FFFFFF"></path>
                    <mask id="mask-2" fill="white">
                        <use xlink:href="#path-1"></use>
                    </mask>
                    <g id="Clip-4"></g>
                    <polygon id="Fill-3" fill="#FFFFFF" mask="url(#mask-2)" points="23.8059752 28.4800892 29.1981007 28.4800892 29.1981007 8.72235806 23.8059752 8.72235806"></polygon>
                    <polygon id="Fill-5" fill="#FFFFFF" mask="url(#mask-2)" points="33.0537162 28.4800892 38.4458416 28.4800892 38.4458416 -9.35483871e-05 33.0537162 -9.35483871e-05"></polygon>
                    <polygon id="Fill-6" fill="#FFFFFF" mask="url(#mask-2)" points="50.0718792 21.1166151 49.7028017 22.9420559 49.6003677 22.9420559 49.2517769 21.1166151 45.8891053 8.72238925 40.2511383 8.72238925 47.0577983 28.4801204 52.2043974 28.4801204 58.9908858 8.72238925 53.3522884 8.72238925"></polygon>
                    <path d="M72.0727153,16.734871 L65.4709233,16.734871 L65.4091477,16.6338387 C65.5456213,15.362828 65.90808,14.3618602 66.4962087,13.6315591 C67.0833919,12.9009462 67.8899414,12.5361075 68.9152269,12.5361075 C69.9405124,12.5361075 70.7227929,12.8641505 71.263014,13.5196129 C71.80292,14.1760108 72.0727153,15.0853011 72.0727153,16.2481075 L72.0727153,16.734871 Z M68.8745685,8.39783871 C67.0701543,8.39783871 65.4810091,8.82753763 64.107448,9.686 C62.7335718,10.5447742 61.6808655,11.7384516 60.9499596,13.2664086 C60.2184233,14.7943656 59.8528127,16.5393548 59.8528127,18.4998172 L59.8528127,19.2301183 C59.8528127,22.0973763 60.7173556,24.4301613 62.4464414,26.2284731 C64.1755272,28.0270968 66.4754068,28.9264086 69.34608,28.9264086 C70.9175751,28.9264086 72.3560635,28.7202903 73.6618606,28.3077419 C74.9670272,27.8951935 76.0503061,27.3376452 76.9116972,26.6341613 L76.9116972,26.6138925 L75.4555586,23.3278495 C74.4576939,23.8685591 73.5695124,24.2505484 72.7903837,24.4738172 C72.011255,24.6967742 71.0064563,24.8084086 69.776618,24.8084086 C68.5464645,24.8084086 67.5347318,24.3996022 66.7420503,23.5810538 C65.9490536,22.763129 65.5046477,21.6845161 65.4091477,20.3458387 L65.4501213,20.223914 L77.3624068,20.223914 L77.3624068,17.3232903 C77.3624068,14.5514516 76.6173177,12.3705269 75.1277698,10.7814516 C73.6379068,9.19268817 71.5532962,8.39783871 68.8745685,8.39783871 Z" id="Fill-7" fill="#FFFFFF" mask="url(#mask-2)"></path>
                    <path d="M89.2962822,8.35755054 C87.3825,8.35755054 85.9134389,9.45269032 84.8881535,11.6432817 L84.6624835,8.72238925 L79.6599224,8.72238925 L79.6599224,28.4801204 L85.0318762,28.4801204 L85.0318762,15.1326366 C85.7889422,13.1045075 88.6255759,13.1045075 90.8318465,13.3068839 C90.8318465,11.9501204 90.7316188,8.58050753 90.7316188,8.58050753 C90.2393053,8.43176559 89.7608597,8.35755054 89.2962822,8.35755054" id="Fill-8" fill="#FFFFFF" mask="url(#mask-2)"></path>
                    <polygon id="Fill-9" fill="#FFFFFF" mask="url(#mask-2)" points="127.387545 11.7480247 133.620259 11.7480247 133.620259 8.76320753 127.387545 8.76320753"></polygon>
                    <polygon id="Fill-10" fill="#FFFFFF" mask="url(#mask-2)" points="115.639469 11.7480247 121.872183 11.7480247 121.872183 8.76320753 115.639469 8.76320753"></polygon>
                    <path d="M127.387387,17.7818022 L127.387387,23.0638559 C126.662785,23.794157 125.637499,24.1593075 124.311846,24.1593075 C122.685194,24.1593075 121.872026,23.0573075 121.872026,20.8529957 L121.872026,17.7818022 L115.639311,17.7818022 L115.639311,20.8124581 C115.639311,23.544071 116.213257,25.5762538 117.361148,26.908071 C118.509669,28.2402 120.14294,28.9059527 122.26159,28.9059527 C124.612214,28.9059527 126.450983,28.0004043 127.776951,26.1877484 L128.166516,28.5205333 L133.620101,28.5205333 L133.620101,17.7818022 L127.387387,17.7818022 Z" id="Fill-11" fill="#FFFFFF" mask="url(#mask-2)"></path>
                    <path d="M103.254474,23.7132376 L98.969266,23.7132376 L98.969266,17.0394957 L103.623551,17.0394957 C104.881126,17.0394957 105.800195,17.3301194 106.38139,17.9116785 C106.962269,18.4932376 107.252867,19.3719688 107.252867,20.5488075 C107.252867,22.6583237 105.919964,23.7132376 103.254474,23.7132376 Z M98.969266,6.63348495 L101.942373,6.63348495 C103.445789,6.63348495 104.546403,6.89043118 105.243584,7.4037 C105.940451,7.91821613 106.289042,8.74268925 106.289042,9.87899032 C106.289042,11.8803022 104.881126,12.9083989 102.065609,12.9617215 L98.969266,12.9617215 L98.969266,6.63348495 Z M112.306802,16.8670548 C111.534292,15.8324097 110.382619,15.1460763 108.852098,14.807743 C110.081936,14.3078828 111.004787,13.5707215 111.619707,12.5971946 C112.234941,11.6233559 112.542558,10.4873667 112.542558,9.18891505 C112.542558,6.78191505 111.626325,4.96302258 109.795121,3.73254946 C107.962971,2.50207634 105.346018,1.88652796 101.942373,1.88652796 L92.7157495,1.88652796 L92.7157495,11.7480871 L96.5051769,11.7480871 L96.5051769,17.7819581 L92.7157495,17.7819581 L92.7157495,28.4598828 L103.254474,28.4801516 C106.58941,28.4801516 109.125045,27.8175172 110.86138,26.4922484 C112.597084,25.1669796 113.465094,23.2058935 113.465094,20.609614 C113.465094,19.1490118 113.078682,17.9013882 112.306802,16.8670548 Z" id="Fill-12" fill="#FFFFFF" mask="url(#mask-2)"></path>
                    <g id="Group-12" mask="url(#mask-2)">
                        <g transform="translate(182.000000, 12.000000)" id="Group">
                            <g transform="translate(4.500000, 3.000000) rotate(-180.000000) translate(-4.500000, -3.000000) ">
                                <path d="M5.91121495,5.95474381 C4.05420436,5.93908099 2.2559117,5.20576646 0.869158879,3.9 L0.210280374,3.285 C0.0420560748,3.135 0.0420560748,2.865 0.210280374,2.715 L0.869158879,2.1 C2.2559117,0.779395289 4.05420436,0.0605990106 5.91121495,0.0452510177 L8.90186916,0.045 L8.90186916,5.97 L5.91121495,5.97 L5.91121495,5.95474381 Z" id="Combined-Shape" fill="#818181" fill-rule="nonzero"></path>
                            </g>
                        </g>
                    </g>
                    <polygon id="Fill-14" fill="#FFFFFF" mask="url(#mask-2)" points="136.491248 28.4800892 142.744764 28.4800892 142.744764 17.7815839 136.491248 17.7815839"></polygon>
                    <polygon id="Fill-15" fill="#FFFFFF" mask="url(#mask-2)" points="136.491248 11.7480247 142.744764 11.7480247 142.744764 -9.35483871e-05 136.491248 -9.35483871e-05"></polygon>
                    <polygon id="Fill-16" fill="#FFFFFF" mask="url(#mask-2)" points="146.005947 11.7480247 152.259464 11.7480247 152.259464 -9.35483871e-05 146.005947 -9.35483871e-05"></polygon>
                    <polygon id="Fill-17" fill="#FFFFFF" mask="url(#mask-2)" points="146.005947 28.4800892 152.259464 28.4800892 152.259464 17.7815839 146.005947 17.7815839"></polygon>
                    <path d="M171.067101,11.7480559 C170.82977,11.4013032 170.565017,11.075443 170.272214,10.7710989 C168.734443,9.1757871 166.612326,8.37750753 163.905862,8.37750753 C161.008083,8.36409892 158.74571,9.29053978 157.119374,11.1568301 C156.953588,11.3470452 156.798519,11.5450559 156.649753,11.7480559 L171.067101,11.7480559 Z" id="Fill-18" fill="#FFFFFF" mask="url(#mask-2)"></path>
                    <path d="M172.57868,20.5687645 L172.57868,17.7816462 L154.700639,17.7816462 C154.688032,18.0438935 154.679522,18.3092591 154.679522,18.5808613 L154.679522,19.2908935 C154.679522,22.0901731 155.564552,24.3892806 157.334926,26.1879043 C159.10467,27.986528 161.445524,28.8858398 164.35717,28.8858398 C165.901245,28.8858398 167.367469,28.6828398 168.754898,28.2774634 C170.142327,27.8714634 171.294,27.337614 172.209603,26.6746677 L170.733608,22.9420871 C169.544428,23.4291624 168.607708,23.7534634 167.924395,23.9159258 C167.240766,24.0780763 166.328631,24.1594634 165.187359,24.1594634 C164.046086,24.1594634 163.119768,23.8417108 162.409033,23.2058935 C161.698299,22.5707 161.274695,21.7253344 161.137906,20.6704204 L161.17888,20.5687645 L172.57868,20.5687645 Z" id="Fill-19" fill="#FFFFFF" mask="url(#mask-2)"></path>
                    <polygon id="Fill-20" fill="#FFFFFF" mask="url(#mask-2)" points="181.764835 11.7480559 181.764835 8.76323871 181.764835 3.85444301 175.552607 3.85444301 175.552607 8.76323871 175.552607 11.7480559"></polygon>
                    <path d="M185.18903,23.895657 C184.656058,24.0172699 184.054061,24.0780763 183.384616,24.0780763 C182.304804,24.0780763 181.764898,23.4157538 181.764898,22.0901731 L181.764898,17.7819581 L175.55267,17.7819581 L175.55267,22.1310226 C175.55267,24.4569473 176.071774,26.1676355 177.110612,27.2627753 C178.149451,28.3585387 179.714642,28.9057968 181.806187,28.9057968 C183.090551,28.9057968 184.368612,28.7570548 185.640055,28.4598828 L185.18903,23.895657 Z" id="Fill-21" fill="#FFFFFF" mask="url(#mask-2)"></path>
                </g>
            </g>
        </g>
    </g>
</svg>